<?xml version="1.0" encoding="utf-8"?>
<!-- Uploaded to: SVG Repo, www.svgrepo.com, Generator: SVG Repo Mixer Tools -->
<svg width="800px" height="800px" viewBox="0 0 1024 1024" class="icon"  version="1.1" xmlns="http://www.w3.org/2000/svg"><path d="M512 512m-512 0a512 512 0 1 0 1024 0 512 512 0 1 0-1024 0Z" fill="#DAE2E5" /><path d="M512 192c-176.704 0-320 143.296-320 320s143.296 320 320 320 320-143.296 320-320-143.264-320-320-320z m0 608c-159.072 0-288-128.928-288-288s128.928-288 288-288 288 128.928 288 288-128.928 288-288 288z" fill="#FFFFFF" /><path d="M713.728 720.352l-475.2-248.896a31.968 31.968 0 0 1 0-45.248l-22.624 22.624a31.968 31.968 0 0 0 0 45.248l475.168 248.928c17.12 8.896 32.704 12.48 45.28-0.032a25.472 25.472 0 0 0 7.264-15.36c-9.152 1.216-19.168-1.664-29.888-7.264z" fill="" /><path d="M758.976 719.808c-12.576 12.512-28.128 8.896-45.248 0l-475.2-248.896a31.968 31.968 0 0 1 0-45.248l226.272-226.272a32 32 0 0 1 45.248 0l248.896 475.2c8.864 16.832 12.512 32.704 0.032 45.216z" fill="#EACF60" /><path d="M387.04 549.216l29.696 15.552 186.656-186.688-15.552-29.664zM476.128 595.872l29.696 15.552 144.224-144.224-15.552-29.664zM657.088 211.232a16 16 0 0 0-22.592 0.032l-77.792 77.792 15.552 29.664 84.8-84.832a15.968 15.968 0 0 0 0.032-22.656zM770.272 233.856a16 16 0 0 0-22.624 0l-144.256 144.256 15.52 29.696 151.328-151.328a15.936 15.936 0 0 0 0.032-22.624zM725.024 414.88a16 16 0 0 0-22.624 0L650.048 467.2l15.552 29.696 59.392-59.36a15.968 15.968 0 0 0 0.032-22.656zM681.184 526.592l-115.968 115.968 29.696 15.52 101.824-101.792zM464.8 335.648c8.288 8.288 13.568 18.336 16.352 28.896l75.552-75.52-15.52-29.696-76.384 76.32zM327.616 518.08l75.552-75.52a63.36 63.36 0 0 1-28.896-16.384l-76.352 76.384 29.696 15.52zM838.144 460.16a16 16 0 0 0-22.624-22.624l-118.784 118.752 15.52 29.696 125.888-125.824zM181.952 686.4a16 16 0 0 0 22.624 0l152.704-152.736-29.664-15.552-145.664 145.696a16 16 0 0 0 0 22.592zM295.104 709.024a15.968 15.968 0 0 0 22.624 0l128.672-128.704-29.696-15.52-121.6 121.6a15.968 15.968 0 0 0 0 22.624zM317.728 822.176a16 16 0 0 0 22.592-0.032l195.168-195.168-29.664-15.552-188.096 188.128a15.968 15.968 0 0 0 0 22.624zM544 731.68a16.032 16.032 0 0 0 22.624 0l57.984-58.016-29.728-15.552-50.912 50.944a16.032 16.032 0 0 0 0.032 22.624z" fill="#434854" /><path d="M419.552 380.928m-64 0a64 64 0 1 0 128 0 64 64 0 1 0-128 0Z" fill="#EF4D4D" /><path d="M374.272 426.176a64 64 0 0 1-9.728-77.632 65.6 65.6 0 0 0-12.896 9.728 64.128 64.128 0 0 0 0 90.56 64.128 64.128 0 0 0 90.528-0.032 65.28 65.28 0 0 0 9.728-12.896 63.936 63.936 0 0 1-77.632-9.728z" fill="" /></svg>